<svg width="251" height="339" viewBox="0 0 251 339" fill="none" xmlns="http://www.w3.org/2000/svg">
<rect width="251" height="249" rx="124.5" fill="white"/>
<path d="M73.3122 235.5C80.2433 233.118 94.34 212.126 99.8452 202.469L86.5787 195.701C82.1565 202.108 72.3916 215.411 68.7094 217.36C64.1067 219.797 34.8663 203.552 26.7439 203.552C18.6215 203.552 1.29377 229.273 8.87465 230.627C16.4555 231.981 21.8705 220.88 28.6391 217.36C35.4077 213.841 64.6483 238.479 73.3122 235.5Z" fill="#62814B"/>
<path opacity="0.4" d="M97.4085 206.801L85.2249 197.596L86.3079 196.242L99.8452 202.469L97.4085 206.801Z" fill="#7C2A13"/>
<path d="M196.587 215.736C192.255 206.53 180.793 197.596 173.303 193.535C166.715 194.166 146.738 201.224 155.619 202.74C166.719 204.635 181.696 217.36 182.779 221.963C183.788 226.253 184.674 267.448 187.111 272.322C187.517 273.134 215.81 277.195 215.81 272.322C215.81 267.448 203.897 262.304 199.836 261.492C195.775 260.68 198.316 219.41 196.587 215.736Z" fill="#62814B"/>
<path opacity="0.4" d="M154.807 202.469L159.68 203.823C167.802 203.101 183.09 200.079 182.693 199.762C181.34 198.679 174.842 194.076 171.864 192.452L154.807 202.469Z" fill="#7C2A13"/>
<circle cx="128.003" cy="125.848" r="82.8482" fill="#F7F3E3"/>
<circle opacity="0.4" cx="127.732" cy="125.577" r="56.5859" fill="#CEB793"/>
<path opacity="0.2" d="M79.2089 155.088C79.2089 155.088 79.5332 129.431 104.072 103.077C128.61 76.7223 159.978 79.252 159.978 79.252C152.003 73.6563 142.477 70.048 132.064 69.2082C100.914 66.6961 73.6248 89.912 71.1126 121.062C70.1133 133.454 73.1854 145.235 79.2089 155.088Z" fill="#7C2A13"/>
<path d="M38.696 326H48.552V303.664H54.824V295.088H48.552V293.808C48.552 291.44 49.896 290.16 51.944 290.16C52.84 290.16 53.736 290.352 54.504 290.8L56.296 284.08C54.76 283.248 52.456 282.672 49.768 282.672C43.368 282.672 38.696 286.96 38.696 293.552V295.088H33.576V303.664H38.696V326ZM73.6805 326.768C84.3045 326.768 90.5765 319.216 90.5765 310.512C90.5765 301.808 84.3045 294.32 73.6805 294.32C63.1845 294.32 56.8485 301.808 56.8485 310.512C56.8485 319.216 63.1845 326.768 73.6805 326.768ZM73.6805 318.064C69.3925 318.064 67.0245 314.672 67.0245 310.512C67.0245 306.416 69.3925 303.024 73.6805 303.024C78.0325 303.024 80.4645 306.416 80.4645 310.512C80.4645 314.672 78.0325 318.064 73.6805 318.064ZM110.556 326.768C121.18 326.768 127.451 319.216 127.451 310.512C127.451 301.808 121.18 294.32 110.556 294.32C100.06 294.32 93.7235 301.808 93.7235 310.512C93.7235 319.216 100.06 326.768 110.556 326.768ZM110.556 318.064C106.268 318.064 103.9 314.672 103.9 310.512C103.9 306.416 106.268 303.024 110.556 303.024C114.908 303.024 117.34 306.416 117.34 310.512C117.34 314.672 114.908 318.064 110.556 318.064ZM153.447 326H163.239V283.312H153.447V298.736C150.951 295.664 147.687 294.32 144.295 294.32C136.551 294.32 130.599 300.4 130.599 310.512C130.599 321.008 136.679 326.768 144.295 326.768C147.751 326.768 150.887 325.36 153.447 322.416V326ZM153.447 315.248C152.167 316.912 149.607 318.064 147.495 318.064C143.591 318.064 140.711 315.12 140.711 310.512C140.711 305.904 143.591 303.024 147.495 303.024C149.607 303.024 152.167 304.112 153.447 305.776V315.248ZM170.459 326H180.315V283.312H170.459V326ZM188.227 329.264L186.819 338.032C187.843 338.352 190.147 338.544 191.043 338.544C196.931 338.416 201.603 336.944 204.099 330.416L218.051 295.088H207.619L200.579 314.672L193.603 295.088H183.235L195.523 326.448L194.819 328.112C194.307 329.392 192.899 329.84 190.659 329.84C189.891 329.84 188.931 329.648 188.227 329.264Z" fill="#62814B"/>
</svg>
