<svg width="251" height="275" viewBox="0 0 251 275" fill="none" xmlns="http://www.w3.org/2000/svg">
<rect width="251" height="249" rx="124.5" fill="white"/>
<path d="M73.3122 235.5C80.2433 233.118 94.34 212.126 99.8452 202.469L86.5787 195.701C82.1565 202.108 72.3916 215.411 68.7094 217.36C64.1067 219.797 34.8663 203.552 26.7439 203.552C18.6215 203.552 1.29377 229.273 8.87465 230.627C16.4555 231.981 21.8705 220.88 28.6391 217.36C35.4077 213.841 64.6483 238.478 73.3122 235.5Z" fill="#62814B"/>
<path opacity="0.4" d="M97.4085 206.801L85.2249 197.596L86.3079 196.242L99.8452 202.469L97.4085 206.801Z" fill="#7C2A13"/>
<path d="M196.587 215.736C192.255 206.53 180.793 197.596 173.303 193.535C166.715 194.166 146.738 201.224 155.619 202.74C166.719 204.635 181.696 217.36 182.779 221.963C183.788 226.253 184.674 267.448 187.111 272.322C187.517 273.134 215.81 277.195 215.81 272.322C215.81 267.448 203.897 262.304 199.836 261.492C195.775 260.68 198.316 219.41 196.587 215.736Z" fill="#62814B"/>
<path opacity="0.4" d="M154.807 202.469L159.68 203.823C167.802 203.101 183.09 200.079 182.693 199.762C181.34 198.679 174.842 194.076 171.864 192.452L154.807 202.469Z" fill="#7C2A13"/>
<circle cx="128.003" cy="125.848" r="82.8482" fill="#F7F3E3"/>
<circle opacity="0.4" cx="127.732" cy="125.577" r="56.5859" fill="#CEB793"/>
<path opacity="0.2" d="M79.2089 155.088C79.2089 155.088 79.5332 129.431 104.072 103.077C128.61 76.7223 159.978 79.252 159.978 79.252C152.003 73.6563 142.477 70.048 132.064 69.2083C100.914 66.6961 73.6248 89.912 71.1126 121.062C70.1133 133.454 73.1854 145.235 79.2089 155.088Z" fill="#7C2A13"/>
</svg>
